HIERARCHY
ROOT Hips
{
     OFFSET 45.49400 96.95440 -62.39730
     CHANNELS 6 Xposition Yposition Zposition Zrotation Xrotation Yrotation
     JOINT Spine
     {
          OFFSET 0.00000 11.89050 0.00000
          CHANNELS 3 Zrotation Xrotation Yrotation
          JOINT Spine1
          {
               OFFSET 0.00000 25.65740 0.12766
               CHANNELS 3 Zrotation Xrotation Yrotation
               JOINT HEad
               {
                    OFFSET 0.00000 8.73416 0.01134
                    CHANNELS 3 Zrotation Xrotation Yrotation
                    End Site
                    {
                         OFFSET -0.29000 12.77420 2.51395
                    }
               }
               JOINT LeftShoulder1
               {
                    OFFSET 8.99000 -0.36225 -0.22000
                    CHANNELS 3 Zrotation Xrotation Yrotation
                    JOINT LeftArm
                    {
                         OFFSET 10.28270 -0.00338 0.32212
                         CHANNELS 3 Zrotation Xrotation Yrotation
                         JOINT LeftForeArm
                         {
                              OFFSET 32.76690 0.09914 -1.42434
                              CHANNELS 3 Zrotation Xrotation Yrotation
                              JOINT LeftHand
                              {
                                   OFFSET 27.56430 0.08536 1.02216
                                   CHANNELS 3 Zrotation Xrotation Yrotation
                                   End Site
                                   {
                                        OFFSET 16.74430 -0.60000 1.50291
                                   }
                              }
                         }
                    }
               }
               JOINT RightShoulder
               {
                    OFFSET -8.99000 -0.36225 -0.22000
                    CHANNELS 3 Zrotation Xrotation Yrotation
                    JOINT RightArm
                    {
                         OFFSET -10.28270 -0.00338 0.32212
                         CHANNELS 3 Zrotation Xrotation Yrotation
                         JOINT RightForeArm
                         {
                              OFFSET -32.89710 0.09914 -1.42434
                              CHANNELS 3 Zrotation Xrotation Yrotation
                              JOINT RightHand
                              {
                                   OFFSET -27.49210 0.08536 1.02216
                                   CHANNELS 3 Zrotation Xrotation Yrotation
                                   End Site
                                   {
                                        OFFSET -16.63120 -0.60000 1.50291
                                   }
                              }
                         }
                    }
               }
          }
     }
     JOINT LeftUpLeg
     {
          OFFSET 8.94580 -8.66707 0.10165
          CHANNELS 3 Zrotation Xrotation Yrotation
          JOINT LeftLeg
          {
               OFFSET 0.00000 -44.42270 1.37270
               CHANNELS 3 Zrotation Xrotation Yrotation
               JOINT LeftFoot
               {
                    OFFSET -0.25355 -42.09240 -1.46059
                    CHANNELS 3 Zrotation Xrotation Yrotation
                    JOINT LeftToes
                    {
                         OFFSET -0.04000 -4.41509 8.49910
                         CHANNELS 3 Zrotation Xrotation Yrotation
                         End Site
                         {
                              OFFSET 0.08000 -0.04745 9.77979
                         }
                    }
               }
          }
     }
     JOINT RightUpLeg
     {
          OFFSET -8.94580 -8.66707 0.10165
          CHANNELS 3 Zrotation Xrotation Yrotation
          JOINT RightLeg
          {
               OFFSET 0.00000 -44.42270 1.37270
               CHANNELS 3 Zrotation Xrotation Yrotation
               JOINT RightFoot
               {
                    OFFSET 0.25355 -42.09240 -1.46059
                    CHANNELS 3 Zrotation Xrotation Yrotation
                    JOINT RightToes
                    {
                         OFFSET 0.04000 -4.41509 8.49910
                         CHANNELS 3 Zrotation Xrotation Yrotation
                         End Site
                         {
                              OFFSET -0.08000 -0.13745 9.77979
                         }
                    }
               }
          }
     }
}
MOTION
Frames: 10
Frame Time: 0.01667
-29.04590 89.53510 -14.68600 -3.18359 0.83507 -33.08700 3.35653 11.90860 -3.34056 11.95790 23.24450 -9.89494 0.98267 -25.53320 14.71740 -0.00000 -0.00000 0.00000 -130.51199 -58.24590 -113.50600 -33.77280 57.51310 -79.56710 24.58520 4.25512 -22.10570 -3.77478 0.13088 -2.58935 84.68280 -2.28653 97.81700 15.72750 32.71710 79.92880 -14.61340 9.95299 -4.76024 3.83110 -20.53540 -22.08310 -34.11040 84.30180 61.13880 -33.04490 7.27979 4.34904 9.62675 -10.63640 -67.80700 -8.50754 -32.52830 -35.13130 -35.44770 34.50340 30.33940 23.54330 -3.91092 -0.93108 -0.08568 -12.64640 34.45720 
-30.20670 90.28570 -13.73580 -2.60942 0.77544 -33.86030 2.65940 12.11530 -3.10038 11.40800 23.64220 -9.24455 1.48754 -25.71660 15.72830 -0.00000 -0.00000 0.00000 -133.77400 -58.00170 -117.09100 -34.60000 57.75400 -78.80580 24.55670 4.23164 -22.24260 -3.96973 0.13826 -1.90643 84.70870 -2.49644 97.41920 15.13820 33.06240 80.63650 -14.81130 9.97261 -4.91531 1.57016 -24.42540 -20.68980 -30.20250 84.30930 58.70360 -32.56840 6.38239 4.02839 9.05753 -12.33270 -68.79640 -7.58122 -31.41530 -34.28510 -35.58570 32.91980 30.09690 24.48730 -4.20547 -0.90144 -0.21945 -12.36430 34.94050 
-31.35160 91.08140 -12.82240 -2.05954 0.65498 -34.60230 1.73839 12.30530 -2.90988 10.68170 23.99040 -8.63703 2.14485 -25.84080 16.87890 -0.00000 -0.00000 0.00000 -136.65800 -57.43180 -120.49300 -34.92700 58.01200 -78.48840 24.54740 4.23251 -22.24900 -4.30787 0.14246 -1.24820 84.95880 -2.63868 97.07100 14.63740 33.39230 81.21240 -15.03660 9.98816 -5.03170 -0.11999 -27.91640 -19.85640 -24.78470 82.65370 54.37270 -31.85780 5.94664 3.81443 8.21916 -14.56230 -69.74310 -6.92687 -30.12160 -33.54720 -35.25910 31.39160 29.67650 25.34950 -4.34287 -0.89875 -0.35348 -12.08310 35.37590 
-32.48390 91.86080 -11.93410 -1.57095 0.49668 -35.27060 0.69532 12.48220 -2.78537 9.81314 24.28510 -8.07883 2.93887 -25.84330 18.08210 -0.00000 -0.00000 0.00000 -138.93201 -56.56740 -123.46600 -34.82340 58.25310 -78.52930 24.55950 4.25155 -22.15010 -4.77009 0.14133 -0.66536 85.48460 -2.65554 96.78310 14.28410 33.67090 81.55530 -15.26810 9.99775 -5.09660 -1.33029 -30.90090 -19.55250 -19.54780 79.57710 49.62040 -31.13740 5.97715 3.73094 7.25913 -16.94290 -70.70570 -6.57070 -28.73650 -32.98360 -34.57940 30.08780 29.20460 26.09040 -4.45872 -0.89526 -0.47782 -11.82640 35.77010 
-33.59650 92.57940 -11.04430 -1.21134 0.35616 -35.87590 -0.27969 12.64820 -2.72310 8.84315 24.52280 -7.55215 3.82997 -25.69290 19.26800 -0.00000 -0.00000 0.00000 -140.50999 -55.45370 -125.88400 -34.38800 58.45650 -78.81480 24.59470 4.28333 -21.96870 -5.33100 0.13440 -0.20702 86.29160 -2.50791 96.56620 14.09970 33.88000 81.63460 -15.48630 10.00000 -5.10279 -2.13044 -33.30430 -19.63470 -14.52560 75.33030 44.58040 -30.63600 6.36159 3.76896 6.34653 -19.07890 -71.67720 -6.41688 -27.31690 -32.61780 -33.64280 29.04960 28.78440 26.67640 -4.61866 -0.87567 -0.57402 -11.63890 36.14260 
-34.68880 93.19700 -10.11590 -1.03033 0.27824 -36.47710 -1.04054 12.78220 -2.69310 7.80594 24.69030 -7.02381 4.75585 -25.38810 20.39250 -0.00000 -0.00000 0.00000 -141.45900 -54.14660 -127.74700 -33.71260 58.62350 -79.25040 24.65240 4.32532 -21.71750 -5.96547 0.12298 0.09927 87.33910 -2.18614 96.42250 14.07690 34.01680 81.48450 -15.67870 9.99445 -5.04955 -2.52940 -35.07940 -19.89330 -9.71798 70.09360 39.51400 -30.48470 6.84357 3.87614 5.66079 -20.60610 -72.53810 -6.34954 -25.90890 -32.43920 -32.56400 28.28090 28.53270 27.08250 -4.87402 -0.82719 -0.62312 -11.56630 36.51880 
-35.76830 93.68320 -9.10574 -1.05173 0.28465 -37.15840 -1.50990 12.84610 -2.64945 6.73555 24.76330 -6.46151 5.63634 -24.93580 21.43130 -0.00000 -0.00000 0.00000 -141.94701 -52.71430 -129.14400 -32.86540 58.77140 -79.78190 24.72710 4.37806 -21.40110 -6.64819 0.10935 0.26019 88.54870 -1.71331 96.33720 14.19770 34.09150 81.17660 -15.84260 9.98105 -4.93901 -2.45320 -36.19190 -20.12590 -5.41546 63.96860 34.97930 -30.66330 7.11573 3.97237 5.36674 -21.24140 -73.10180 -6.26821 -24.54040 -32.40850 -31.46650 27.76870 28.56030 27.29830 -5.27394 -0.73810 -0.61415 -11.63300 36.91510 
-36.84650 94.02150 -7.96962 -1.27622 0.37721 -38.00190 -1.66593 12.79750 -2.54505 5.67057 24.71000 -5.84791 6.37737 -24.33310 22.36380 -0.00000 -0.00000 0.00000 -142.18100 -51.23930 -130.19901 -31.90050 58.91910 -80.38290 24.80810 4.44280 -21.02600 -7.35308 0.09555 0.31629 89.82080 -1.13754 96.27920 14.44790 34.12150 80.78760 -15.98360 9.95995 -4.77326 -1.78846 -36.60890 -20.18830 -1.90881 57.03320 31.43060 -31.04560 6.95218 3.98112 5.58394 -20.78950 -73.18640 -6.10432 -23.21860 -32.46480 -30.46290 27.49210 28.94240 27.32690 -5.86160 -0.59934 -0.54765 -11.83290 37.32530 
-37.93800 94.19710 -6.66975 -1.69299 0.54809 -39.06130 -1.51468 12.61320 -2.34954 4.65737 24.50360 -5.18750 6.87895 -23.56020 23.16050 -0.00000 -0.00000 0.00000 -142.34599 -49.81350 -131.03300 -30.87620 59.07510 -81.02810 24.88280 4.51892 -20.60860 -8.05555 0.08228 0.32820 91.05110 -0.51497 96.21100 14.81390 34.12360 80.37680 -16.11020 9.93112 -4.55273 -0.45327 -36.30760 -20.02320 0.69179 49.41990 28.98510 -31.49650 6.30141 3.86517 6.34422 -19.15520 -72.67360 -5.83073 -21.95160 -32.53330 -29.65070 27.47930 29.70530 27.17350 -6.68560 -0.40220 -0.43200 -12.13940 37.71850 
-39.05320 94.20780 -5.17897 -2.28168 0.77057 -40.34840 -1.10314 12.28840 -2.05700 3.74256 24.12930 -4.50250 7.05007 -22.59210 23.78110 -0.00000 -0.00000 0.00000 -142.57899 -48.52290 -131.73700 -29.86370 59.23580 -81.67300 24.94330 4.60237 -20.17480 -8.73637 0.06878 0.35503 92.14530 0.10998 96.10300 15.27120 34.10460 79.97720 -16.22550 9.89450 -4.27769 1.52689 -35.26040 -19.66100 2.46283 41.31030 27.47550 -31.89520 5.35940 3.65681 7.53207 -16.43980 -71.55280 -5.46919 -20.72720 -32.53870 -29.08620 27.77410 30.79710 26.84740 -7.76124 -0.14798 -0.27505 -12.52780 38.05330 
